<svg xmlns="http://www.w3.org/2000/svg" xmlns:xlink="http://www.w3.org/1999/xlink" width="125" zoomAndPan="magnify" viewBox="0 0 93.75 93.749997" height="125" preserveAspectRatio="xMidYMid meet" version="1.0"><defs><clipPath id="0d0cbb91d4"><path d="M 7.894531 1.894531 L 85.683594 1.894531 L 85.683594 91.652344 L 7.894531 91.652344 Z M 7.894531 1.894531 " clip-rule="nonzero"/></clipPath></defs><g clip-path="url(#0d0cbb91d4)"><path fill="#000000" d="M 7.894531 82.660156 C 7.894531 83.246094 7.949219 83.832031 8.066406 84.410156 C 8.179688 84.988281 8.351562 85.546875 8.574219 86.089844 C 8.800781 86.636719 9.078125 87.152344 9.40625 87.644531 C 9.734375 88.132812 10.105469 88.585938 10.523438 89.003906 C 10.9375 89.417969 11.390625 89.789062 11.882812 90.117188 C 12.371094 90.445312 12.890625 90.722656 13.433594 90.945312 C 13.976562 91.171875 14.539062 91.34375 15.117188 91.457031 C 15.695312 91.574219 16.28125 91.628906 16.867188 91.628906 L 58.757812 91.628906 C 59.347656 91.628906 59.929688 91.574219 60.507812 91.457031 C 61.085938 91.34375 61.648438 91.171875 62.191406 90.945312 C 62.738281 90.722656 63.253906 90.445312 63.742188 90.117188 C 64.234375 89.789062 64.6875 89.417969 65.105469 89.003906 C 65.519531 88.585938 65.894531 88.132812 66.21875 87.644531 C 66.546875 87.152344 66.824219 86.636719 67.050781 86.089844 C 67.273438 85.546875 67.445312 84.988281 67.5625 84.410156 C 67.675781 83.832031 67.734375 83.246094 67.734375 82.660156 L 67.734375 79.667969 L 76.710938 79.667969 C 77.296875 79.667969 77.882812 79.609375 78.460938 79.496094 C 79.039062 79.378906 79.601562 79.210938 80.144531 78.984375 C 80.6875 78.757812 81.207031 78.484375 81.695312 78.15625 C 82.1875 77.828125 82.640625 77.457031 83.054688 77.039062 C 83.472656 76.625 83.84375 76.171875 84.171875 75.679688 C 84.5 75.191406 84.777344 74.675781 85 74.128906 C 85.226562 73.585938 85.398438 73.023438 85.511719 72.445312 C 85.628906 71.871094 85.683594 71.285156 85.683594 70.695312 L 85.683594 10.886719 C 85.683594 10.300781 85.628906 9.714844 85.511719 9.136719 C 85.398438 8.558594 85.226562 8 85 7.453125 C 84.777344 6.910156 84.5 6.394531 84.171875 5.902344 C 83.84375 5.414062 83.472656 4.960938 83.054688 4.542969 C 82.640625 4.128906 82.1875 3.757812 81.695312 3.429688 C 81.207031 3.101562 80.6875 2.824219 80.144531 2.601562 C 79.601562 2.375 79.039062 2.203125 78.460938 2.089844 C 77.882812 1.972656 77.296875 1.917969 76.710938 1.917969 L 34.820312 1.917969 C 34.230469 1.917969 33.648438 1.972656 33.070312 2.089844 C 32.492188 2.203125 31.929688 2.375 31.386719 2.601562 C 30.839844 2.824219 30.324219 3.101562 29.835938 3.429688 C 29.34375 3.757812 28.890625 4.128906 28.472656 4.542969 C 28.058594 4.960938 27.683594 5.414062 27.359375 5.902344 C 27.03125 6.394531 26.753906 6.910156 26.527344 7.453125 C 26.300781 8 26.132812 8.558594 26.015625 9.136719 C 25.902344 9.714844 25.84375 10.300781 25.84375 10.886719 L 25.84375 13.878906 L 16.867188 13.878906 C 16.28125 13.878906 15.695312 13.9375 15.117188 14.050781 C 14.539062 14.164062 13.976562 14.335938 13.433594 14.5625 C 12.890625 14.785156 12.371094 15.0625 11.882812 15.390625 C 11.390625 15.71875 10.9375 16.089844 10.523438 16.507812 C 10.105469 16.921875 9.734375 17.375 9.40625 17.867188 C 9.078125 18.355469 8.800781 18.871094 8.574219 19.417969 C 8.351562 19.960938 8.179688 20.523438 8.066406 21.101562 C 7.949219 21.675781 7.894531 22.261719 7.894531 22.851562 Z M 31.828125 10.886719 C 31.828125 10.492188 31.90625 10.109375 32.054688 9.742188 C 32.207031 9.378906 32.425781 9.054688 32.707031 8.773438 C 32.984375 8.492188 33.308594 8.277344 33.675781 8.125 C 34.042969 7.972656 34.425781 7.898438 34.820312 7.898438 L 76.710938 7.898438 C 77.105469 7.898438 77.488281 7.972656 77.855469 8.125 C 78.21875 8.277344 78.542969 8.492188 78.824219 8.773438 C 79.105469 9.054688 79.320312 9.378906 79.472656 9.742188 C 79.625 10.109375 79.699219 10.492188 79.699219 10.886719 L 79.699219 70.695312 C 79.699219 71.09375 79.625 71.476562 79.472656 71.839844 C 79.320312 72.207031 79.105469 72.53125 78.824219 72.8125 C 78.542969 73.089844 78.21875 73.308594 77.855469 73.460938 C 77.488281 73.609375 77.105469 73.6875 76.710938 73.6875 L 67.734375 73.6875 L 67.734375 22.851562 C 67.734375 22.261719 67.675781 21.675781 67.5625 21.101562 C 67.445312 20.523438 67.273438 19.960938 67.050781 19.417969 C 66.824219 18.871094 66.546875 18.355469 66.21875 17.867188 C 65.894531 17.375 65.519531 16.921875 65.105469 16.507812 C 64.6875 16.089844 64.234375 15.71875 63.742188 15.390625 C 63.253906 15.0625 62.738281 14.785156 62.191406 14.5625 C 61.648438 14.335938 61.085938 14.164062 60.507812 14.050781 C 59.929688 13.9375 59.347656 13.878906 58.757812 13.878906 L 31.828125 13.878906 Z M 13.875 22.851562 C 13.875 22.453125 13.953125 22.070312 14.105469 21.707031 C 14.257812 21.339844 14.472656 21.015625 14.753906 20.734375 C 15.035156 20.453125 15.355469 20.238281 15.722656 20.085938 C 16.089844 19.933594 16.472656 19.859375 16.867188 19.859375 L 58.757812 19.859375 C 59.152344 19.859375 59.535156 19.933594 59.902344 20.085938 C 60.269531 20.238281 60.59375 20.453125 60.871094 20.734375 C 61.152344 21.015625 61.371094 21.339844 61.519531 21.707031 C 61.671875 22.070312 61.75 22.453125 61.75 22.851562 L 61.75 82.660156 C 61.75 83.054688 61.671875 83.4375 61.519531 83.804688 C 61.371094 84.167969 61.152344 84.492188 60.871094 84.773438 C 60.59375 85.054688 60.269531 85.269531 59.902344 85.421875 C 59.535156 85.574219 59.152344 85.648438 58.757812 85.648438 L 16.867188 85.648438 C 16.472656 85.648438 16.089844 85.574219 15.722656 85.421875 C 15.355469 85.269531 15.035156 85.054688 14.753906 84.773438 C 14.472656 84.492188 14.257812 84.167969 14.105469 83.804688 C 13.953125 83.4375 13.875 83.054688 13.875 82.660156 Z M 13.875 22.851562 " fill-opacity="1" fill-rule="nonzero"/></g></svg>